<mxfile host="app.diagrams.net" modified="2023-03-23T02:47:33.275Z" agent="5.0 (Windows NT 10.0; Win64; x64) AppleWebKit/537.36 (KHTML, like Gecko) Chrome/109.0.0.0 Safari/537.36" etag="Mge087j84BTjyZLj7P2N" version="21.0.10" type="github">
  <diagram name="Page-1" id="e56a1550-8fbb-45ad-956c-1786394a9013">
    <mxGraphModel dx="978" dy="502" grid="1" gridSize="10" guides="1" tooltips="1" connect="1" arrows="1" fold="1" page="0" pageScale="1" pageWidth="1169" pageHeight="827" background="#ffffff" math="0" shadow="0">
      <root>
        <mxCell id="0" />
        <mxCell id="1" parent="0" />
        <mxCell id="2e49270ec7c68f3f-92" value="" style="edgeStyle=orthogonalEdgeStyle;html=1;endArrow=ERzeroToOne;endFill=1;labelBackgroundColor=none;fontFamily=Verdana;fontSize=14;entryX=0;entryY=0.5;exitX=1;exitY=0.5;" parent="1" source="2e49270ec7c68f3f-87" edge="1">
          <mxGeometry width="100" height="100" relative="1" as="geometry">
            <mxPoint x="200.35294117647072" y="408.9411764705883" as="sourcePoint" />
            <mxPoint x="290" y="649" as="targetPoint" />
            <Array as="points">
              <mxPoint x="220" y="479" />
              <mxPoint x="220" y="679" />
            </Array>
          </mxGeometry>
        </mxCell>
        <mxCell id="hAJHhIO74vFtWTL41Ozo-24" style="edgeStyle=orthogonalEdgeStyle;rounded=1;orthogonalLoop=1;jettySize=auto;html=1;entryX=0;entryY=0.5;entryDx=0;entryDy=0;strokeColor=default;endArrow=none;endFill=0;" edge="1" parent="1" source="hAJHhIO74vFtWTL41Ozo-11" target="hAJHhIO74vFtWTL41Ozo-17">
          <mxGeometry relative="1" as="geometry" />
        </mxCell>
        <mxCell id="hAJHhIO74vFtWTL41Ozo-29" style="edgeStyle=orthogonalEdgeStyle;shape=connector;rounded=1;orthogonalLoop=1;jettySize=auto;html=1;entryX=0.5;entryY=0;entryDx=0;entryDy=0;labelBackgroundColor=default;strokeColor=default;fontFamily=Helvetica;fontSize=11;fontColor=default;endArrow=none;endFill=0;" edge="1" parent="1" source="hAJHhIO74vFtWTL41Ozo-11" target="hAJHhIO74vFtWTL41Ozo-18">
          <mxGeometry relative="1" as="geometry" />
        </mxCell>
        <mxCell id="hAJHhIO74vFtWTL41Ozo-11" value="tb_projects" style="rounded=1;arcSize=10;whiteSpace=wrap;html=1;align=center;glass=0;shadow=0;fillColor=#1ba1e2;strokeColor=#006EAF;fontColor=#ffffff;" vertex="1" parent="1">
          <mxGeometry x="320" y="280" width="100" height="40" as="geometry" />
        </mxCell>
        <mxCell id="hAJHhIO74vFtWTL41Ozo-12" value="Languages" style="rounded=1;arcSize=10;whiteSpace=wrap;html=1;align=center;fillColor=#1ba1e2;fillStyle=auto;fontColor=#ffffff;strokeColor=#006EAF;" vertex="1" parent="1">
          <mxGeometry x="679" y="280" width="100" height="40" as="geometry" />
        </mxCell>
        <mxCell id="hAJHhIO74vFtWTL41Ozo-13" value="Topics" style="rounded=1;arcSize=10;whiteSpace=wrap;html=1;align=center;fillColor=#1ba1e2;fillStyle=auto;fontColor=#ffffff;strokeColor=#006EAF;" vertex="1" parent="1">
          <mxGeometry x="320" y="520" width="100" height="40" as="geometry" />
        </mxCell>
        <mxCell id="hAJHhIO74vFtWTL41Ozo-25" style="edgeStyle=orthogonalEdgeStyle;rounded=1;orthogonalLoop=1;jettySize=auto;html=1;entryX=0;entryY=0.5;entryDx=0;entryDy=0;endArrow=none;endFill=0;" edge="1" parent="1" source="hAJHhIO74vFtWTL41Ozo-17" target="hAJHhIO74vFtWTL41Ozo-12">
          <mxGeometry relative="1" as="geometry" />
        </mxCell>
        <mxCell id="hAJHhIO74vFtWTL41Ozo-17" value="Project-Languages" style="shape=associativeEntity;whiteSpace=wrap;html=1;align=center;rounded=1;fillColor=#1ba1e2;fontColor=#ffffff;strokeColor=#006EAF;" vertex="1" parent="1">
          <mxGeometry x="499" y="280" width="100" height="40" as="geometry" />
        </mxCell>
        <mxCell id="hAJHhIO74vFtWTL41Ozo-30" style="edgeStyle=orthogonalEdgeStyle;shape=connector;rounded=1;orthogonalLoop=1;jettySize=auto;html=1;entryX=0.5;entryY=0;entryDx=0;entryDy=0;labelBackgroundColor=default;strokeColor=default;fontFamily=Helvetica;fontSize=11;fontColor=default;endArrow=none;endFill=0;" edge="1" parent="1" source="hAJHhIO74vFtWTL41Ozo-18" target="hAJHhIO74vFtWTL41Ozo-13">
          <mxGeometry relative="1" as="geometry" />
        </mxCell>
        <mxCell id="hAJHhIO74vFtWTL41Ozo-18" value="Project-Topics" style="shape=associativeEntity;whiteSpace=wrap;html=1;align=center;rounded=1;fillColor=#1ba1e2;fontColor=#ffffff;strokeColor=#006EAF;" vertex="1" parent="1">
          <mxGeometry x="320" y="400" width="100" height="40" as="geometry" />
        </mxCell>
        <mxCell id="hAJHhIO74vFtWTL41Ozo-40" style="shape=connector;rounded=1;orthogonalLoop=1;jettySize=auto;html=1;labelBackgroundColor=default;strokeColor=default;fontFamily=Helvetica;fontSize=11;fontColor=default;endArrow=none;endFill=0;edgeStyle=orthogonalEdgeStyle;startArrow=oval;startFill=1;" edge="1" parent="1" source="hAJHhIO74vFtWTL41Ozo-31" target="hAJHhIO74vFtWTL41Ozo-11">
          <mxGeometry relative="1" as="geometry" />
        </mxCell>
        <mxCell id="hAJHhIO74vFtWTL41Ozo-31" value="project_id" style="ellipse;whiteSpace=wrap;html=1;align=center;fontFamily=Helvetica;fontSize=11;fillColor=none;strokeColor=none;" vertex="1" parent="1">
          <mxGeometry x="220" y="150" width="60" height="20" as="geometry" />
        </mxCell>
        <mxCell id="hAJHhIO74vFtWTL41Ozo-41" style="edgeStyle=orthogonalEdgeStyle;shape=connector;rounded=1;orthogonalLoop=1;jettySize=auto;html=1;labelBackgroundColor=default;strokeColor=default;fontFamily=Helvetica;fontSize=11;fontColor=default;endArrow=none;endFill=0;startArrow=oval;startFill=0;" edge="1" parent="1" source="hAJHhIO74vFtWTL41Ozo-32" target="hAJHhIO74vFtWTL41Ozo-11">
          <mxGeometry relative="1" as="geometry" />
        </mxCell>
        <mxCell id="hAJHhIO74vFtWTL41Ozo-32" value="project_name" style="ellipse;whiteSpace=wrap;html=1;align=center;fontFamily=Helvetica;fontSize=11;fillColor=none;strokeColor=none;" vertex="1" parent="1">
          <mxGeometry x="200" y="170" width="80" height="20" as="geometry" />
        </mxCell>
        <mxCell id="hAJHhIO74vFtWTL41Ozo-45" style="edgeStyle=orthogonalEdgeStyle;shape=connector;rounded=1;orthogonalLoop=1;jettySize=auto;html=1;labelBackgroundColor=default;strokeColor=default;fontFamily=Helvetica;fontSize=11;fontColor=default;startArrow=oval;startFill=0;endArrow=none;endFill=0;" edge="1" parent="1" source="hAJHhIO74vFtWTL41Ozo-33" target="hAJHhIO74vFtWTL41Ozo-11">
          <mxGeometry relative="1" as="geometry" />
        </mxCell>
        <mxCell id="hAJHhIO74vFtWTL41Ozo-33" value="project_title" style="ellipse;whiteSpace=wrap;html=1;align=center;fontFamily=Helvetica;fontSize=11;fillColor=none;strokeColor=none;" vertex="1" parent="1">
          <mxGeometry x="210" y="190" width="70" height="20" as="geometry" />
        </mxCell>
        <mxCell id="hAJHhIO74vFtWTL41Ozo-43" style="edgeStyle=orthogonalEdgeStyle;shape=connector;rounded=1;orthogonalLoop=1;jettySize=auto;html=1;labelBackgroundColor=default;strokeColor=default;fontFamily=Helvetica;fontSize=11;fontColor=default;startArrow=oval;startFill=0;endArrow=none;endFill=0;" edge="1" parent="1" source="hAJHhIO74vFtWTL41Ozo-34" target="hAJHhIO74vFtWTL41Ozo-11">
          <mxGeometry relative="1" as="geometry" />
        </mxCell>
        <mxCell id="hAJHhIO74vFtWTL41Ozo-34" value="project_description" style="ellipse;whiteSpace=wrap;html=1;align=center;fontFamily=Helvetica;fontSize=11;fillColor=none;strokeColor=none;" vertex="1" parent="1">
          <mxGeometry x="170" y="210" width="110" height="20" as="geometry" />
        </mxCell>
        <mxCell id="hAJHhIO74vFtWTL41Ozo-44" style="edgeStyle=orthogonalEdgeStyle;shape=connector;rounded=1;orthogonalLoop=1;jettySize=auto;html=1;labelBackgroundColor=default;strokeColor=default;fontFamily=Helvetica;fontSize=11;fontColor=default;startArrow=oval;startFill=0;endArrow=none;endFill=0;" edge="1" parent="1" source="hAJHhIO74vFtWTL41Ozo-35" target="hAJHhIO74vFtWTL41Ozo-11">
          <mxGeometry relative="1" as="geometry" />
        </mxCell>
        <mxCell id="hAJHhIO74vFtWTL41Ozo-35" value="project_repository" style="ellipse;whiteSpace=wrap;html=1;align=center;fontFamily=Helvetica;fontSize=11;fillColor=none;strokeColor=none;" vertex="1" parent="1">
          <mxGeometry x="180" y="230" width="100" height="20" as="geometry" />
        </mxCell>
        <mxCell id="hAJHhIO74vFtWTL41Ozo-42" style="edgeStyle=orthogonalEdgeStyle;shape=connector;rounded=1;orthogonalLoop=1;jettySize=auto;html=1;labelBackgroundColor=default;strokeColor=default;fontFamily=Helvetica;fontSize=11;fontColor=default;startArrow=oval;startFill=0;endArrow=none;endFill=0;" edge="1" parent="1" source="hAJHhIO74vFtWTL41Ozo-36" target="hAJHhIO74vFtWTL41Ozo-11">
          <mxGeometry relative="1" as="geometry" />
        </mxCell>
        <mxCell id="hAJHhIO74vFtWTL41Ozo-36" value="project_site" style="ellipse;whiteSpace=wrap;html=1;align=center;fontFamily=Helvetica;fontSize=11;fillColor=none;strokeColor=none;" vertex="1" parent="1">
          <mxGeometry x="210" y="250" width="70" height="20" as="geometry" />
        </mxCell>
        <mxCell id="hAJHhIO74vFtWTL41Ozo-48" style="edgeStyle=orthogonalEdgeStyle;shape=connector;rounded=1;orthogonalLoop=1;jettySize=auto;html=1;labelBackgroundColor=default;strokeColor=default;fontFamily=Helvetica;fontSize=11;fontColor=default;startArrow=oval;startFill=0;endArrow=none;endFill=0;" edge="1" parent="1" source="hAJHhIO74vFtWTL41Ozo-37" target="hAJHhIO74vFtWTL41Ozo-11">
          <mxGeometry relative="1" as="geometry" />
        </mxCell>
        <mxCell id="hAJHhIO74vFtWTL41Ozo-37" value="project_display" style="ellipse;whiteSpace=wrap;html=1;align=center;fontFamily=Helvetica;fontSize=11;fillColor=none;strokeColor=none;" vertex="1" parent="1">
          <mxGeometry x="190" y="270" width="90" height="20" as="geometry" />
        </mxCell>
        <mxCell id="hAJHhIO74vFtWTL41Ozo-47" style="edgeStyle=orthogonalEdgeStyle;shape=connector;rounded=1;orthogonalLoop=1;jettySize=auto;html=1;labelBackgroundColor=default;strokeColor=default;fontFamily=Helvetica;fontSize=11;fontColor=default;startArrow=oval;startFill=0;endArrow=none;endFill=0;" edge="1" parent="1" source="hAJHhIO74vFtWTL41Ozo-38" target="hAJHhIO74vFtWTL41Ozo-11">
          <mxGeometry relative="1" as="geometry" />
        </mxCell>
        <mxCell id="hAJHhIO74vFtWTL41Ozo-38" value="project_cover" style="ellipse;whiteSpace=wrap;html=1;align=center;fontFamily=Helvetica;fontSize=11;fillColor=none;strokeColor=none;" vertex="1" parent="1">
          <mxGeometry x="200" y="290" width="80" height="20" as="geometry" />
        </mxCell>
        <mxCell id="hAJHhIO74vFtWTL41Ozo-46" style="edgeStyle=orthogonalEdgeStyle;shape=connector;rounded=1;orthogonalLoop=1;jettySize=auto;html=1;labelBackgroundColor=default;strokeColor=default;fontFamily=Helvetica;fontSize=11;fontColor=default;startArrow=oval;startFill=0;endArrow=none;endFill=0;" edge="1" parent="1" source="hAJHhIO74vFtWTL41Ozo-39" target="hAJHhIO74vFtWTL41Ozo-11">
          <mxGeometry relative="1" as="geometry" />
        </mxCell>
        <mxCell id="hAJHhIO74vFtWTL41Ozo-39" value="project_image" style="ellipse;whiteSpace=wrap;html=1;align=center;fontFamily=Helvetica;fontSize=11;fillColor=none;strokeColor=none;" vertex="1" parent="1">
          <mxGeometry x="190" y="310" width="90" height="20" as="geometry" />
        </mxCell>
        <mxCell id="hAJHhIO74vFtWTL41Ozo-50" style="edgeStyle=orthogonalEdgeStyle;shape=connector;rounded=1;orthogonalLoop=1;jettySize=auto;html=1;labelBackgroundColor=default;strokeColor=default;fontFamily=Helvetica;fontSize=11;fontColor=default;startArrow=oval;startFill=1;endArrow=none;endFill=0;" edge="1" parent="1" source="hAJHhIO74vFtWTL41Ozo-49" target="hAJHhIO74vFtWTL41Ozo-12">
          <mxGeometry relative="1" as="geometry" />
        </mxCell>
        <mxCell id="hAJHhIO74vFtWTL41Ozo-49" value="language_id" style="ellipse;whiteSpace=wrap;html=1;align=center;fontFamily=Helvetica;fontSize=11;fillColor=none;strokeColor=none;" vertex="1" parent="1">
          <mxGeometry x="810" y="280" width="80" height="20" as="geometry" />
        </mxCell>
        <mxCell id="hAJHhIO74vFtWTL41Ozo-52" style="edgeStyle=orthogonalEdgeStyle;shape=connector;rounded=1;orthogonalLoop=1;jettySize=auto;html=1;labelBackgroundColor=default;strokeColor=default;fontFamily=Helvetica;fontSize=11;fontColor=default;startArrow=oval;startFill=0;endArrow=none;endFill=0;" edge="1" parent="1" source="hAJHhIO74vFtWTL41Ozo-51" target="hAJHhIO74vFtWTL41Ozo-12">
          <mxGeometry relative="1" as="geometry" />
        </mxCell>
        <mxCell id="hAJHhIO74vFtWTL41Ozo-51" value="language_name" style="ellipse;whiteSpace=wrap;html=1;align=center;fontFamily=Helvetica;fontSize=11;fillColor=none;strokeColor=none;" vertex="1" parent="1">
          <mxGeometry x="810" y="300" width="100" height="20" as="geometry" />
        </mxCell>
        <mxCell id="hAJHhIO74vFtWTL41Ozo-55" style="edgeStyle=orthogonalEdgeStyle;shape=connector;rounded=1;orthogonalLoop=1;jettySize=auto;html=1;labelBackgroundColor=default;strokeColor=default;fontFamily=Helvetica;fontSize=11;fontColor=default;startArrow=oval;startFill=1;endArrow=none;endFill=0;" edge="1" parent="1" source="hAJHhIO74vFtWTL41Ozo-53" target="hAJHhIO74vFtWTL41Ozo-13">
          <mxGeometry relative="1" as="geometry" />
        </mxCell>
        <mxCell id="hAJHhIO74vFtWTL41Ozo-53" value="topic_id" style="ellipse;whiteSpace=wrap;html=1;align=center;fontFamily=Helvetica;fontSize=11;fillColor=none;strokeColor=none;" vertex="1" parent="1">
          <mxGeometry x="240" y="520" width="50" height="20" as="geometry" />
        </mxCell>
        <mxCell id="hAJHhIO74vFtWTL41Ozo-56" style="edgeStyle=orthogonalEdgeStyle;shape=connector;rounded=1;orthogonalLoop=1;jettySize=auto;html=1;labelBackgroundColor=default;strokeColor=default;fontFamily=Helvetica;fontSize=11;fontColor=default;startArrow=oval;startFill=0;endArrow=none;endFill=0;" edge="1" parent="1" source="hAJHhIO74vFtWTL41Ozo-54" target="hAJHhIO74vFtWTL41Ozo-13">
          <mxGeometry relative="1" as="geometry" />
        </mxCell>
        <mxCell id="hAJHhIO74vFtWTL41Ozo-54" value="topic_name" style="ellipse;whiteSpace=wrap;html=1;align=center;fontFamily=Helvetica;fontSize=11;fillColor=none;strokeColor=none;" vertex="1" parent="1">
          <mxGeometry x="220" y="540" width="70" height="20" as="geometry" />
        </mxCell>
        <mxCell id="hAJHhIO74vFtWTL41Ozo-60" style="edgeStyle=orthogonalEdgeStyle;shape=connector;rounded=1;orthogonalLoop=1;jettySize=auto;html=1;labelBackgroundColor=default;strokeColor=default;fontFamily=Helvetica;fontSize=11;fontColor=default;startArrow=oval;startFill=1;endArrow=none;endFill=0;" edge="1" parent="1" source="hAJHhIO74vFtWTL41Ozo-57" target="hAJHhIO74vFtWTL41Ozo-18">
          <mxGeometry relative="1" as="geometry" />
        </mxCell>
        <mxCell id="hAJHhIO74vFtWTL41Ozo-57" value="project_topic_id" style="ellipse;whiteSpace=wrap;html=1;align=center;fontFamily=Helvetica;fontSize=11;fillColor=none;strokeColor=none;" vertex="1" parent="1">
          <mxGeometry x="195" y="397.5" width="95" height="15" as="geometry" />
        </mxCell>
        <mxCell id="hAJHhIO74vFtWTL41Ozo-61" style="edgeStyle=orthogonalEdgeStyle;shape=connector;rounded=1;orthogonalLoop=1;jettySize=auto;html=1;labelBackgroundColor=default;strokeColor=default;fontFamily=Helvetica;fontSize=11;fontColor=default;startArrow=oval;startFill=0;endArrow=none;endFill=0;" edge="1" parent="1" source="hAJHhIO74vFtWTL41Ozo-58" target="hAJHhIO74vFtWTL41Ozo-18">
          <mxGeometry relative="1" as="geometry" />
        </mxCell>
        <mxCell id="hAJHhIO74vFtWTL41Ozo-64" value="" style="edgeStyle=orthogonalEdgeStyle;shape=connector;rounded=1;orthogonalLoop=1;jettySize=auto;html=1;labelBackgroundColor=default;strokeColor=default;fontFamily=Helvetica;fontSize=11;fontColor=default;startArrow=oval;startFill=0;endArrow=none;endFill=0;" edge="1" parent="1" source="hAJHhIO74vFtWTL41Ozo-58" target="hAJHhIO74vFtWTL41Ozo-18">
          <mxGeometry relative="1" as="geometry" />
        </mxCell>
        <mxCell id="hAJHhIO74vFtWTL41Ozo-58" value="project_id" style="ellipse;whiteSpace=wrap;html=1;align=center;fontFamily=Helvetica;fontSize=11;fillColor=none;strokeColor=none;" vertex="1" parent="1">
          <mxGeometry x="225" y="412.5" width="65" height="15" as="geometry" />
        </mxCell>
        <mxCell id="hAJHhIO74vFtWTL41Ozo-62" style="edgeStyle=orthogonalEdgeStyle;shape=connector;rounded=1;orthogonalLoop=1;jettySize=auto;html=1;labelBackgroundColor=default;strokeColor=default;fontFamily=Helvetica;fontSize=11;fontColor=default;startArrow=oval;startFill=0;endArrow=none;endFill=0;" edge="1" parent="1" source="hAJHhIO74vFtWTL41Ozo-59" target="hAJHhIO74vFtWTL41Ozo-18">
          <mxGeometry relative="1" as="geometry" />
        </mxCell>
        <mxCell id="hAJHhIO74vFtWTL41Ozo-59" value="topic_id" style="ellipse;whiteSpace=wrap;html=1;align=center;fontFamily=Helvetica;fontSize=11;fillColor=none;strokeColor=none;" vertex="1" parent="1">
          <mxGeometry x="235" y="427.5" width="55" height="20" as="geometry" />
        </mxCell>
        <mxCell id="hAJHhIO74vFtWTL41Ozo-65" value="project_topic_id" style="ellipse;whiteSpace=wrap;html=1;align=center;fontFamily=Helvetica;fontSize=11;fillColor=none;strokeColor=none;" vertex="1" parent="1">
          <mxGeometry x="195" y="397.5" width="95" height="15" as="geometry" />
        </mxCell>
        <mxCell id="hAJHhIO74vFtWTL41Ozo-66" value="project_id" style="ellipse;whiteSpace=wrap;html=1;align=center;fontFamily=Helvetica;fontSize=11;fillColor=none;strokeColor=none;" vertex="1" parent="1">
          <mxGeometry x="225" y="412.5" width="65" height="15" as="geometry" />
        </mxCell>
        <mxCell id="hAJHhIO74vFtWTL41Ozo-67" value="topic_id" style="ellipse;whiteSpace=wrap;html=1;align=center;fontFamily=Helvetica;fontSize=11;fillColor=none;strokeColor=none;" vertex="1" parent="1">
          <mxGeometry x="235" y="427.5" width="55" height="20" as="geometry" />
        </mxCell>
        <mxCell id="hAJHhIO74vFtWTL41Ozo-74" style="edgeStyle=orthogonalEdgeStyle;shape=connector;rounded=1;orthogonalLoop=1;jettySize=auto;html=1;labelBackgroundColor=default;strokeColor=default;fontFamily=Helvetica;fontSize=11;fontColor=default;startArrow=oval;startFill=1;endArrow=none;endFill=0;exitX=1;exitY=0.5;exitDx=0;exitDy=0;" edge="1" parent="1" source="hAJHhIO74vFtWTL41Ozo-68" target="hAJHhIO74vFtWTL41Ozo-17">
          <mxGeometry relative="1" as="geometry" />
        </mxCell>
        <mxCell id="hAJHhIO74vFtWTL41Ozo-68" value="project_language_id" style="ellipse;whiteSpace=wrap;html=1;align=center;fontFamily=Helvetica;fontSize=11;fillColor=none;strokeColor=none;" vertex="1" parent="1">
          <mxGeometry x="410" y="192.5" width="110" height="15" as="geometry" />
        </mxCell>
        <mxCell id="hAJHhIO74vFtWTL41Ozo-75" style="edgeStyle=orthogonalEdgeStyle;shape=connector;rounded=1;orthogonalLoop=1;jettySize=auto;html=1;labelBackgroundColor=default;strokeColor=default;fontFamily=Helvetica;fontSize=11;fontColor=default;startArrow=oval;startFill=0;endArrow=none;endFill=0;exitX=1;exitY=0.5;exitDx=0;exitDy=0;" edge="1" parent="1" source="hAJHhIO74vFtWTL41Ozo-69" target="hAJHhIO74vFtWTL41Ozo-17">
          <mxGeometry relative="1" as="geometry">
            <mxPoint x="528" y="290" as="targetPoint" />
          </mxGeometry>
        </mxCell>
        <mxCell id="hAJHhIO74vFtWTL41Ozo-69" value="project_id" style="ellipse;whiteSpace=wrap;html=1;align=center;fontFamily=Helvetica;fontSize=11;fillColor=none;strokeColor=none;" vertex="1" parent="1">
          <mxGeometry x="455" y="210" width="65" height="15" as="geometry" />
        </mxCell>
        <mxCell id="hAJHhIO74vFtWTL41Ozo-76" style="edgeStyle=orthogonalEdgeStyle;shape=connector;rounded=1;orthogonalLoop=1;jettySize=auto;html=1;labelBackgroundColor=default;strokeColor=default;fontFamily=Helvetica;fontSize=11;fontColor=default;startArrow=oval;startFill=0;endArrow=none;endFill=0;exitX=1;exitY=0.5;exitDx=0;exitDy=0;" edge="1" parent="1" source="hAJHhIO74vFtWTL41Ozo-70" target="hAJHhIO74vFtWTL41Ozo-17">
          <mxGeometry relative="1" as="geometry" />
        </mxCell>
        <mxCell id="hAJHhIO74vFtWTL41Ozo-70" value="language_id" style="ellipse;whiteSpace=wrap;html=1;align=center;fontFamily=Helvetica;fontSize=11;fillColor=none;strokeColor=none;" vertex="1" parent="1">
          <mxGeometry x="450" y="225" width="70" height="20" as="geometry" />
        </mxCell>
      </root>
    </mxGraphModel>
  </diagram>
</mxfile>
